# xmcd
#
# Track frame offsets:
#	150
#	19576
#	43132
#
# Disc length: 752 seconds
#
# Revision: 0
# Processed by: cddbd v1.5.2PL0 Copyright (c) Steve Scherf et al.
# Submitted via: dBpowerAMP V4.0
#
DISCID=1c02ee03
DTITLE=Nathalie - We Think It's Love [CDS]
DYEAR=2006
DGENRE=Pop
TTITLE0=We Think It's Love (Reggaeton Remix)
TTITLE1=We Think It's Love (Spånka Remix)
TTITLE2=We Think It's Love (Radioversion)
EXTD=
EXTT0=
EXTT1=
EXTT2=
PLAYORDER=
